# xmcd CD database file
#
# Track frame offsets:
#	150
#	19413
#	42138
#	61403
#
# Disc length: 1117 seconds
#
# Revision: 5
# Processed by: cddbd v1.5.1PL0 Copyright (c) Steve Scherf et al.
# Submitted via: CDex 1.51
#
DISCID=2e045b04
DTITLE=FictionJunction YUUKA - inside your heart
DYEAR=2004
DGENRE=JPop
TTITLE0=inside your heart
TTITLE1=I'm here
TTITLE2=inside your heart (オリジナル・カラオケ)
TTITLE3=I'm here (オリジナル・カラオケ）
EXTD=YEAR: 2004
EXTT0=
EXTT1=
EXTT2=
EXTT3=
PLAYORDER=
